<?xml version="1.0" standalone="no"?>
<!DOCTYPE svg PUBLIC "-//W3C//DTD SVG 1.1//EN" "http://www.w3.org/Graphics/SVG/1.1/DTD/svg11.dtd" >
<svg xmlns="http://www.w3.org/2000/svg" xmlns:xlink="http://www.w3.org/1999/xlink" version="1.1">
<metadata>
Created by FontForge 20141024 at Sat Feb 20 09:01:30 2016
 By Jimmy Warting
Copyright (c) 2012 by cbabb. All rights reserved.
</metadata>
<defs>
<font id="Couture-Bold" horiz-adv-x="741" >
  <font-face 
    font-family="Couture"
    font-weight="700"
    font-stretch="normal"
    units-per-em="1000"
    panose-1="2 11 8 4 2 2 2 2 2 4"
    ascent="714"
    descent="-286"
    x-height="714"
    cap-height="714"
    bbox="-9 -102 1307 816"
    underline-thickness="50"
    underline-position="-50"
    unicode-range="U+0020-2122"
  />
<missing-glyph horiz-adv-x="278" 
 />
    <glyph glyph-name=".notdef" horiz-adv-x="278" 
 />
    <glyph glyph-name="A" unicode="A" horiz-adv-x="807" 
d="M144 0h-143l324 713h158l319 -713h-152l-70 158h-361zM407 579h-1l-120 -276h237z" />
    <glyph glyph-name="B" unicode="B" horiz-adv-x="704" 
d="M226 318v-196h168c61 0 116 20 116 94c0 73 -45 102 -113 102h-171zM69 0v714h336c136 0 228 -44 228 -177c0 -72 -33 -118 -97 -149c88 -25 131 -92 131 -181c0 -145 -123 -207 -252 -207h-346zM226 592v-167h159c56 0 96 25 96 85c0 67 -52 82 -108 82h-147z" />
    <glyph glyph-name="C" unicode="C" 
d="M713 191c-61 -115 -179 -193 -320 -193c-200 0 -362 162 -362 362c0 198 162 362 362 362c137 0 253 -76 314 -185c-61 -32 -66 -35 -134 -68c-35 61 -103 103 -180 103c-117 0 -212 -96 -212 -212c0 -117 95 -212 212 -212c80 0 150 43 186 111c68 -35 70 -39 134 -68z
" />
    <glyph glyph-name="D" unicode="D" 
d="M69 0v714h308c185 0 324 -117 324 -353c0 -207 -106 -361 -324 -361h-308zM226 582v-450h140c91 0 178 56 178 214c0 144 -51 236 -206 236h-112z" />
    <glyph glyph-name="E" unicode="E" horiz-adv-x="648" 
d="M529 285h-326v-152h403v-132h-555v716h521v-132h-369v-161h326v-139z" />
    <glyph glyph-name="F" unicode="F" horiz-adv-x="593" 
d="M203 285v-152v-133h-152v717h521v-132h-369v-161h326v-139h-326z" />
    <glyph glyph-name="G" unicode="G" horiz-adv-x="759" 
d="M745 381c0 -21 -4 -153 -41 -201c-61 -115 -185 -192 -324 -192c-203 0 -369 166 -369 370c0 203 166 369 369 369c138 0 259 -77 323 -188c-63 -32 -68 -35 -138 -70c-37 64 -105 105 -185 105c-120 0 -216 -96 -216 -216c0 -121 96 -216 216 -216c80 0 160 40 189 108
h-16c-32 0 -105 -1 -145 -1c-19 0 -28 0 -28 1v132c101 0 242 -1 365 -1z" />
    <glyph glyph-name="H" unicode="H" 
d="M539 2v304h-331v-304h-153v716h153v-259h331v257h154v-714h-154z" />
    <glyph glyph-name="I" unicode="I" horiz-adv-x="295" 
d="M69 0v714h157v-714h-157z" />
    <glyph glyph-name="J" unicode="J" horiz-adv-x="556" 
d="M487 714v-489c0 -92 -25 -242 -238 -242c-80 0 -156 29 -200 94c-24 32 -35 83 -35 103l145 24c0 -53 15 -89 88 -89c83 0 83 66 83 117v482h157z" />
    <glyph glyph-name="K" unicode="K" horiz-adv-x="722" 
d="M408 310l290 -310h-216l-186 200l-93 -129v-71h-160v715h160v-405l279 405h195z" />
    <glyph glyph-name="L" unicode="L" horiz-adv-x="593" 
d="M574 5h-520v712h154v-580h366v-132z" />
    <glyph glyph-name="M" unicode="M" horiz-adv-x="907" 
d="M86 0v714h204l165 -315l162 315h207v-714h-147v505h-2l-159 -325h-121l-158 320h-2v-500h-149z" />
    <glyph glyph-name="N" unicode="N" 
d="M554 -1l-362 494v-494h-137v717h180l319 -446v446h133v-717h-133z" />
    <glyph glyph-name="O" unicode="O" horiz-adv-x="778" 
d="M757 360c0 -204 -167 -369 -370 -369c-204 0 -369 165 -369 369c0 205 165 370 369 370c203 0 370 -165 370 -370zM387 579c-119 0 -218 -100 -218 -219s99 -218 218 -218s216 99 216 218s-97 219 -216 219z" />
    <glyph glyph-name="P" unicode="P" horiz-adv-x="667" 
d="M69 0v714h322c179 0 247 -113 247 -229s-68 -229 -247 -229h-165v-256h-157zM226 592v-214h122c72 0 138 16 138 107s-66 107 -138 107h-122z" />
    <glyph glyph-name="Q" unicode="Q" horiz-adv-x="778" 
d="M748 164l1 -149h-264c-32 -10 -66 -15 -101 -15c-200 0 -363 163 -363 363c0 203 163 365 363 365c203 0 365 -162 365 -365c0 -88 -26 -144 -78 -199h77zM384 576c-117 0 -214 -94 -214 -213c0 -117 97 -211 214 -211c119 0 213 94 213 211c0 119 -94 213 -213 213z" />
    <glyph glyph-name="R" unicode="R" horiz-adv-x="722" 
d="M470 264h6l200 -265h-192l-180 257h-77v-257h-158v715h322c180 0 249 -113 249 -229c0 -97 -51 -195 -170 -221zM349 592h-122v-215h122c75 0 137 17 137 108c0 93 -62 107 -137 107z" />
    <glyph glyph-name="S" unicode="S" horiz-adv-x="649" 
d="M24 237l152 -25c16 -94 100 -107 158 -107c55 0 139 16 139 89c0 152 -425 54 -425 321c0 147 138 216 267 216c149 0 286 -65 286 -230l-152 22c-19 83 -92 86 -141 86c-50 0 -108 -21 -108 -81c0 -53 34 -65 213 -108c53 -13 212 -46 212 -208
c0 -131 -102 -229 -297 -229c-160 0 -304 78 -304 254z" />
    <glyph glyph-name="T" unicode="T" horiz-adv-x="653" 
d="M250 0v582h-227v131h609v-132h-225v-581h-157z" />
    <glyph glyph-name="U" unicode="U" 
d="M675 714v-444c0 -193 -114 -287 -305 -287c-193 0 -304 92 -304 287v444h157v-444c0 -78 20 -155 147 -155c112 0 148 48 148 155v444h157z" />
    <glyph glyph-name="V" unicode="V" horiz-adv-x="630" 
d="M638 714l-237 -714h-177l-232 714h162l159 -502h2l161 502h162z" />
    <glyph glyph-name="W" unicode="W" horiz-adv-x="944" 
d="M941 714l-192 -714h-156l-121 486h-2l-119 -486h-159l-189 714h157l101 -488l14 2l124 486h147l122 -492l14 -1l105 493h154z" />
    <glyph glyph-name="X" unicode="X" horiz-adv-x="667" 
d="M-6 0l250 374l-230 340h182l140 -228l145 228h172l-229 -341l249 -373h-187l-150 245l-165 -245h-177z" />
    <glyph glyph-name="Y" unicode="Y" horiz-adv-x="667" 
d="M254 0v278l-263 436h177l167 -282l166 282h175l-265 -440v-274h-157z" />
    <glyph glyph-name="Z" unicode="Z" horiz-adv-x="648" 
d="M23 0v124l383 458h-353v132h562v-124l-383 -458h393v-132h-602z" />
    <glyph glyph-name="trademark" unicode="&#x2122;" horiz-adv-x="1000" 
d="M398 714v-80h-117v-332h-102v332h-117v80h336zM451 301v413h118l94 -286l95 286h120v-413h-78v293l-102 -293h-70l-102 289v-289h-75z" />
    <glyph glyph-name="registered" unicode="&#xae;" horiz-adv-x="800" 
d="M314 409h78c48 0 88 10 88 70c0 58 -40 67 -88 67h-78v-137zM469 338h4l118 -169h-113l-114 163h-50v-163h-100v455h206c112 0 157 -72 157 -145c0 -63 -32 -122 -108 -141zM403 82c174 0 314 141 314 314c0 175 -140 315 -314 315c-175 0 -315 -140 -315 -315
c0 -173 140 -314 315 -314zM403 790c217 0 393 -176 393 -394c0 -217 -176 -393 -393 -393c-218 0 -394 176 -394 393c0 218 176 394 394 394z" />
    <glyph glyph-name="copyright" unicode="&#xa9;" horiz-adv-x="800" 
d="M544 328c48 -27 48 -27 91 -48c-40 -80 -122 -136 -223 -136c-135 0 -249 114 -249 254s114 254 249 254c97 0 180 -51 223 -131c-43 -22 -49 -22 -96 -48c-27 43 -70 74 -127 74c-78 0 -144 -66 -144 -149s66 -149 144 -149c57 0 104 31 132 79zM399 79
c175 0 320 143 320 319c0 175 -145 315 -320 315s-315 -140 -315 -315c0 -176 140 -319 315 -319zM399 796c219 0 398 -179 398 -398s-179 -398 -398 -398s-398 179 -398 398s179 398 398 398z" />
    <glyph glyph-name="space" unicode=" " horiz-adv-x="303" 
 />
    <glyph glyph-name="dollar" unicode="$" horiz-adv-x="1377" 
d="M1175 512c-53 91 -152 155 -270 155c-32 0 -64 -6 -96 -15c69 -81 110 -182 110 -295s-41 -215 -110 -295c32 -9 64 -15 96 -15c113 0 213 59 265 151c62 -32 71 -37 133 -69c-80 -139 -227 -231 -398 -231c-81 0 -155 22 -223 59c-65 -37 -141 -59 -222 -59
c-171 0 -318 92 -398 231c59 32 71 37 132 69c56 -92 153 -151 266 -151c33 0 64 6 95 15c-68 80 -107 182 -107 295s39 214 107 295c-31 9 -62 15 -95 15c-117 0 -215 -63 -268 -155c-60 26 -71 33 -132 68c80 139 226 236 400 236c81 0 157 -22 222 -59
c68 37 142 59 223 59c171 0 325 -97 402 -236c-62 -35 -74 -42 -132 -68zM682 571c-53 -56 -84 -130 -84 -214s31 -159 84 -215c53 56 88 131 88 215s-35 158 -88 214z" />
    <glyph glyph-name="b" unicode="b" horiz-adv-x="695" 
d="M210 318v-196h168c61 0 116 20 116 94c0 73 -45 102 -113 102h-171zM53 0v714h336c136 0 228 -44 228 -177c0 -72 -33 -118 -97 -149c88 -25 131 -92 131 -181c0 -145 -123 -207 -252 -207h-346zM210 592v-167h159c56 0 96 25 96 85c0 67 -52 82 -108 82h-147z" />
    <glyph glyph-name="c" unicode="c" 
d="M713 191c-61 -115 -179 -193 -320 -193c-200 0 -362 162 -362 362c0 198 162 362 362 362c137 0 253 -76 314 -185c-61 -32 -66 -35 -134 -68c-35 61 -103 103 -180 103c-117 0 -212 -96 -212 -212c0 -117 95 -212 212 -212c80 0 150 43 186 111c68 -35 70 -39 134 -68z
" />
    <glyph glyph-name="d" unicode="d" horiz-adv-x="747" 
d="M69 0v714h308c185 0 324 -117 324 -353c0 -207 -106 -361 -324 -361h-308zM226 582v-450h140c91 0 178 56 178 214c0 144 -51 236 -206 236h-112z" />
    <glyph glyph-name="e" unicode="e" horiz-adv-x="650" 
d="M203 285v-152h403v-132h-555v716h521v-132h-369v-161h326v-139h-326z" />
    <glyph glyph-name="f" unicode="f" horiz-adv-x="613" 
d="M203 285v-152v-133h-152v717h521v-132h-369v-161h326v-139h-326z" />
    <glyph glyph-name="h" unicode="h" horiz-adv-x="749" 
d="M539 2v304h-331v-304h-153v716h153v-259h331v257h154v-714h-154z" />
    <glyph glyph-name="i" unicode="i" horiz-adv-x="288" 
d="M69 0v714h157v-714h-157z" />
    <glyph glyph-name="l" unicode="l" horiz-adv-x="619" 
d="M574 5h-520v712h154v-580h366v-132z" />
    <glyph glyph-name="o" unicode="o" horiz-adv-x="779" 
d="M757 360c0 -204 -167 -369 -370 -369c-204 0 -369 165 -369 369c0 205 165 370 369 370c203 0 370 -165 370 -370zM387 579c-119 0 -218 -100 -218 -219s99 -218 218 -218s216 99 216 218s-97 219 -216 219z" />
    <glyph glyph-name="p" unicode="p" horiz-adv-x="667" 
d="M69 0v714h322c179 0 247 -113 247 -229s-68 -229 -247 -229h-165v-256h-157zM226 592v-214h122c72 0 138 16 138 107s-66 107 -138 107h-122z" />
    <glyph glyph-name="t" unicode="t" horiz-adv-x="653" 
d="M250 0v582h-227v131h609v-132h-225v-581h-157z" />
    <glyph glyph-name="u" unicode="u" horiz-adv-x="739" 
d="M675 714v-444c0 -193 -114 -287 -305 -287c-193 0 -304 92 -304 287v444h157v-444c0 -78 20 -155 147 -155c112 0 148 48 148 155v444h157z" />
    <glyph glyph-name="v" unicode="v" horiz-adv-x="629" 
d="M638 714l-237 -714h-177l-232 714h162l159 -502h2l161 502h162z" />
    <glyph glyph-name="w" unicode="w" horiz-adv-x="941" 
d="M941 714l-192 -714h-156l-121 486h-2l-119 -486h-159l-189 714h157l101 -488l14 2l124 486h147l122 -492l14 -1l105 493h154z" />
    <glyph glyph-name="x" unicode="x" horiz-adv-x="669" 
d="M-6 0l250 374l-230 340h182l140 -228l145 228h172l-229 -341l249 -373h-187l-150 245l-165 -245h-177z" />
    <glyph glyph-name="y" unicode="y" horiz-adv-x="669" 
d="M254 0v278l-263 436h177l167 -282l166 282h175l-265 -440v-274h-157z" />
    <glyph glyph-name="z" unicode="z" horiz-adv-x="648" 
d="M23 0v124l383 458h-353v132h562v-124l-383 -458h393v-132h-602z" />
    <glyph glyph-name="numbersign" unicode="#" horiz-adv-x="1013" 
d="M554 -1l-375 523v-523h-124v717h180l319 -446v446h133v-717h-133zM963 594c0 -68 -54 -119 -119 -119c-67 0 -120 51 -120 119c0 67 53 120 120 120c65 0 119 -53 119 -120zM844 665c-39 0 -71 -32 -71 -71c0 -37 32 -72 71 -72s69 33 69 72s-30 71 -69 71z" />
    <glyph glyph-name="zero" unicode="0" horiz-adv-x="547" 
d="M32 346c0 249 79 364 246 364s246 -115 246 -364s-79 -365 -246 -365s-246 116 -246 365zM176 346c0 -183 22 -253 102 -253s102 70 102 253c0 184 -22 252 -102 252s-102 -68 -102 -252z" />
    <glyph glyph-name="one" unicode="1" horiz-adv-x="325" 
d="M30 655l247 52v-707h-140v565h-107v90z" />
    <glyph glyph-name="two" unicode="2" horiz-adv-x="539" 
d="M28 0v138c24 38 102 99 163 144c128 93 179 128 179 209c0 48 -31 101 -98 101c-99 0 -102 -81 -102 -133h-136c0 232 169 251 232 251c136 0 244 -81 244 -224c0 -125 -78 -183 -148 -231c-94 -67 -142 -98 -159 -131h308v-124h-483z" />
    <glyph glyph-name="three" unicode="3" horiz-adv-x="548" 
d="M213 311v100h22c43 0 119 4 119 96c0 27 -12 91 -89 91c-96 0 -96 -91 -96 -116h-130c0 133 75 228 235 228c95 0 220 -49 220 -198c0 -72 -45 -116 -85 -135v-2c25 -8 107 -44 107 -165c0 -133 -98 -229 -242 -229c-67 0 -247 15 -247 237h137l-1 -1
c0 -38 10 -124 104 -124c56 0 105 38 105 117c0 97 -94 101 -159 101z" />
    <glyph glyph-name="four" unicode="4" horiz-adv-x="557" 
d="M177 603v-332h131v439h139v-432h80v-121h-80v-157h-140v157h-280v121v325h150z" />
    <glyph glyph-name="five" unicode="5" horiz-adv-x="545" 
d="M181 580v-154c20 19 51 39 120 39c96 0 215 -66 215 -229c0 -97 -49 -255 -258 -255c-112 0 -223 66 -231 209h140c7 -60 35 -97 99 -97c68 0 106 57 106 133c0 63 -30 127 -104 127c-19 0 -68 -1 -94 -51l-125 6v390h439v-118h-307z" />
    <glyph glyph-name="six" unicode="6" horiz-adv-x="545" 
d="M506 530h-139c-4 40 -30 68 -82 68c-92 0 -112 -104 -117 -196l2 -2c19 27 54 59 133 59c148 0 217 -113 217 -219c0 -156 -95 -259 -232 -259c-215 0 -257 180 -257 357c0 135 19 372 264 372c30 0 108 -11 145 -46c38 -38 53 -62 66 -134zM380 228
c0 90 -59 119 -102 119c-52 0 -107 -33 -107 -122c0 -77 43 -132 111 -132c52 0 98 39 98 135z" />
    <glyph glyph-name="seven" unicode="7" horiz-adv-x="548" 
d="M528 698v-108c-40 -87 -155 -315 -259 -590h-166c107 261 221 497 253 574h-331v124h503z" />
    <glyph glyph-name="eight" unicode="8" horiz-adv-x="554" 
d="M279 422c56 0 87 37 87 88c0 56 -37 88 -82 88c-64 0 -96 -36 -96 -88c0 -42 31 -88 91 -88zM524 211c0 -90 -58 -230 -246 -230c-184 0 -246 119 -246 216c0 35 0 130 108 180c-56 28 -86 71 -86 139c0 120 97 194 221 194c147 0 225 -86 225 -185
c0 -61 -25 -112 -82 -143c68 -35 106 -79 106 -171zM380 205c0 50 -27 111 -104 111c-51 0 -100 -34 -100 -110c0 -68 39 -113 103 -113c73 0 101 63 101 112z" />
    <glyph glyph-name="nine" unicode="9" horiz-adv-x="566" 
d="M170 475c0 -107 52 -130 105 -130c49 0 103 35 103 119c0 81 -35 131 -107 131c-36 0 -101 -19 -101 -120zM44 164h139v-1c8 -49 39 -70 82 -70c56 0 117 49 117 198l-2 2c-32 -48 -87 -60 -135 -60c-136 0 -215 103 -215 222c0 173 103 255 242 255
c246 0 250 -264 250 -365c0 -276 -130 -364 -258 -364c-120 0 -209 70 -220 183z" />
    <glyph glyph-name="a" unicode="a" horiz-adv-x="807" 
d="M144 0h-143l324 713h158l319 -713h-152l-70 158h-361zM407 579h-1l-120 -276h237z" />
    <glyph glyph-name="g" unicode="g" horiz-adv-x="759" 
d="M745 381c0 -21 -4 -153 -41 -201c-61 -115 -185 -192 -324 -192c-203 0 -369 166 -369 370c0 203 166 369 369 369c138 0 259 -77 323 -188c-63 -32 -68 -35 -138 -70c-37 64 -105 105 -185 105c-120 0 -216 -96 -216 -216c0 -121 96 -216 216 -216c80 0 160 40 189 108
h-16c-32 0 -105 -1 -145 -1c-19 0 -28 0 -28 1v132c101 0 242 -1 365 -1z" />
    <glyph glyph-name="j" unicode="j" horiz-adv-x="556" 
d="M487 714v-489c0 -92 -25 -242 -238 -242c-80 0 -156 29 -200 94c-24 32 -35 83 -35 103l145 24c0 -53 15 -89 88 -89c83 0 83 66 83 117v482h157z" />
    <glyph glyph-name="k" unicode="k" horiz-adv-x="722" 
d="M408 310l290 -310h-216l-186 200l-93 -129v-71h-160v715h160v-405l279 405h195z" />
    <glyph glyph-name="m" unicode="m" horiz-adv-x="907" 
d="M86 0v714h204l165 -315l162 315h207v-714h-147v505h-2l-159 -325h-121l-158 320h-2v-500h-149z" />
    <glyph glyph-name="n" unicode="n" 
d="M554 -1l-362 494v-494h-137v717h180l319 -446v446h133v-717h-133z" />
    <glyph glyph-name="q" unicode="q" horiz-adv-x="778" 
d="M748 164l1 -149h-264c-32 -10 -66 -15 -101 -15c-200 0 -363 163 -363 363c0 203 163 365 363 365c203 0 365 -162 365 -365c0 -88 -26 -144 -78 -199h77zM384 576c-117 0 -214 -94 -214 -213c0 -117 97 -211 214 -211c119 0 213 94 213 211c0 119 -94 213 -213 213z" />
    <glyph glyph-name="r" unicode="r" horiz-adv-x="722" 
d="M470 264h6l200 -265h-192l-180 257h-77v-257h-158v715h322c180 0 249 -113 249 -229c0 -97 -51 -195 -170 -221zM349 592h-122v-215h122c75 0 137 17 137 108c0 93 -62 107 -137 107z" />
    <glyph glyph-name="s" unicode="s" horiz-adv-x="649" 
d="M24 237l152 -25c16 -94 100 -107 158 -107c55 0 139 16 139 89c0 152 -425 54 -425 321c0 147 138 216 267 216c149 0 286 -65 286 -230l-152 22c-19 83 -92 86 -141 86c-50 0 -108 -21 -108 -81c0 -53 34 -65 213 -108c53 -13 212 -46 212 -208
c0 -131 -102 -229 -297 -229c-160 0 -304 78 -304 254z" />
    </font>
</defs>
</svg>
